<?xml version="1.0" encoding="UTF-8" standalone="no"?>
<!-- Created with Inkscape (http://www.inkscape.org/) -->

<svg
   xmlns:dc="http://purl.org/dc/elements/1.1/"
   xmlns:cc="http://creativecommons.org/ns#"
   xmlns:rdf="http://www.w3.org/1999/02/22-rdf-syntax-ns#"
   xmlns:svg="http://www.w3.org/2000/svg"
   xmlns="http://www.w3.org/2000/svg"
   xmlns:sodipodi="http://sodipodi.sourceforge.net/DTD/sodipodi-0.dtd"
   xmlns:inkscape="http://www.inkscape.org/namespaces/inkscape"
   version="1.1"
   id="svg3770"
   xml:space="preserve"
   width="4000"
   height="4000"
   viewBox="0 0 4000 4000"
   sodipodi:docname="DbEntity_Logo.svg"
   inkscape:version="0.92.4 5da689c313, 2019-01-14"><metadata
     id="metadata3776"><rdf:RDF><cc:Work
         rdf:about=""><dc:format>image/svg+xml</dc:format><dc:type
           rdf:resource="http://purl.org/dc/dcmitype/StillImage" /><dc:title></dc:title></cc:Work></rdf:RDF></metadata><defs
     id="defs3774"><clipPath
       clipPathUnits="userSpaceOnUse"
       id="clipPath3822"><path
         d="m 1832,1051 h 147.867 V 759 H 1832 Z"
         id="path3820"
         inkscape:connector-curvature="0" /></clipPath></defs><sodipodi:namedview
     pagecolor="#ffffff"
     bordercolor="#666666"
     borderopacity="1"
     objecttolerance="10"
     gridtolerance="10"
     guidetolerance="10"
     inkscape:pageopacity="0"
     inkscape:pageshadow="2"
     inkscape:window-width="2560"
     inkscape:window-height="1440"
     id="namedview3772"
     showgrid="false"
     inkscape:zoom="0.30475"
     inkscape:cx="2000"
     inkscape:cy="2000"
     inkscape:window-x="0"
     inkscape:window-y="0"
     inkscape:window-maximized="1"
     inkscape:current-layer="g3778" /><g
     id="g3778"
     inkscape:groupmode="layer"
     inkscape:label="DbEntity_Logo_SVG"
     transform="matrix(1.3333333,0,0,-1.3333333,0,4000)"><g
       id="g3780"><path
         d="m 1134.91,2106.566 282.84,163.45 c 7.863,-3.211 16.348,-4.969 25.242,-4.969 37.039,0 67.246,30.223 67.246,67.281 0,37.059 -30.207,67.285 -67.246,67.285 -37.035,0 -67.035,-30.019 -67.242,-66.972 l -292.152,-168.832 c -23.899,-13.868 -38.797,-39.645 -38.797,-67.387 v -359.395 c 0,-27.636 14.898,-53.515 38.898,-67.386 l 328.985,-190.047 c 4.55,-2.59 9.722,-4.039 14.894,-4.039 5.172,0 10.348,1.347 14.899,4.039 9.312,5.383 14.898,15.113 14.898,25.879 v 9.625 c 0,15.734 -8.484,30.328 -22.035,38.195 l -300.43,173.59 c -9.207,5.383 -15,15.32 -15,25.984 v 327.719 c 0,10.66 5.793,20.703 15,25.98 z m 267.738,241.496 c 6.309,16.25 22.036,27.637 40.45,27.637 2.277,0 4.449,-0.207 6.621,-0.515 2.687,-0.414 5.277,-1.036 7.656,-1.969 16.965,-5.899 29.07,-22.047 29.07,-40.988 0,-20.809 -14.691,-38.301 -34.246,-42.442 -2.894,-0.621 -6,-0.933 -9.101,-0.933 -24,0 -43.45,19.46 -43.45,43.476 0,5.59 1.137,10.867 3,15.734 z"
         style="fill:#fc1782;fill-opacity:1;fill-rule:nonzero;stroke:none"
         id="path3782"
         inkscape:connector-curvature="0" /><path
         d="m 1918.051,2143.211 -329.188,190.152 c -4.656,2.692 -9.828,4.039 -15.105,4.039 -5.274,0 -10.449,-1.449 -15.102,-4.039 -9.414,-5.484 -15.105,-15.215 -15.105,-26.187 v -13.356 c 0,-13.043 7.035,-25.152 18.312,-31.672 l 304.875,-176.074 c 8.899,-5.074 14.379,-14.597 14.379,-24.844 v -329.171 c 0,-10.247 -5.48,-19.77 -14.379,-24.84 l -275.597,-155.27 c -9.211,4.762 -19.657,7.453 -30.625,7.453 -37.036,0 -67.243,-30.226 -67.243,-67.285 0,-37.055 30.207,-67.281 67.243,-67.281 33.625,0 61.554,24.738 66.523,57.035 l 291.117,168.207 c 23.586,13.664 38.172,38.922 38.172,66.145 v 360.843 c -0.101,27.223 -14.687,52.586 -38.277,66.145 z M 1590.52,1460.754 c -5.071,-4.863 -11.176,-8.488 -18.106,-10.453 -3.828,-1.141 -7.863,-1.656 -12,-1.656 -0.414,0 -0.934,0 -1.348,0 -23.378,0.722 -42.105,19.871 -42.105,43.371 0,24.015 19.449,43.472 43.453,43.472 2.274,0 4.551,-0.207 6.723,-0.515 20.797,-3.211 36.726,-21.219 36.726,-42.957 0,-12.321 -5.07,-23.395 -13.343,-31.262 z"
         style="fill:#fc1782;fill-opacity:1;fill-rule:nonzero;stroke:none"
         id="path3784"
         inkscape:connector-curvature="0" /><path
         d="m 1696.453,1859.379 -509.508,-135.188 c -8.894,-2.379 -17.379,14.286 -12.414,24.43 l 11.692,24.121 c 9.312,19.25 23.484,32.086 40.242,36.539 l 505.785,134.153 c 8.895,2.378 17.379,-14.286 12.414,-24.43 l -13.656,-28.363 c -8.07,-16.457 -20.172,-27.536 -34.555,-31.262 z"
         style="fill:#fc1782;fill-opacity:1;fill-rule:nonzero;stroke:none"
         id="path3786"
         inkscape:connector-curvature="0" /><path
         d="m 1700.18,1736.926 -315.43,-83.641 c -5.484,-1.445 -12.52,15.527 -10.348,25.051 l 5.278,22.359 c 4.14,17.907 12.105,29.086 22.554,31.778 l 313.153,83.019 c 5.484,1.449 12.515,-15.527 10.343,-25.051 l -6.101,-26.293 c -3.727,-15.32 -10.555,-24.843 -19.449,-27.222 z"
         style="fill:#fc1782;fill-opacity:1;fill-rule:nonzero;stroke:none"
         id="path3788"
         inkscape:connector-curvature="0" /><path
         d="m 1618.555,2058.641 -315.43,-83.637 c -5.484,-1.449 -12.52,15.527 -10.344,25.051 l 5.274,22.359 c 4.14,17.906 12.105,29.086 22.554,31.777 l 313.153,83.016 c 5.484,1.449 12.519,-15.527 10.343,-25.051 l -6.101,-26.289 c -3.828,-15.32 -10.555,-24.844 -19.449,-27.226 z"
         style="fill:#fc1782;fill-opacity:1;fill-rule:nonzero;stroke:none"
         id="path3790"
         inkscape:connector-curvature="0" /><path
         d="m 1788.113,1996.949 -509.402,-135.086 c -8.899,-2.379 -17.383,14.285 -12.414,24.43 l 11.687,24.117 c 9.313,19.254 23.485,32.09 40.246,36.543 l 505.782,134.152 c 8.898,2.379 17.379,-14.285 12.414,-24.429 l -13.656,-28.364 c -8.067,-16.562 -20.172,-27.535 -34.657,-31.363 z"
         style="fill:#fc1782;fill-opacity:1;fill-rule:nonzero;stroke:none"
         id="path3792"
         inkscape:connector-curvature="0" /><path
         d="m 1237.602,702.918 h -10.297 V 601.621 h 57.515 v 9.156 h -47.218 z"
         style="fill:#de2386;fill-opacity:1;fill-rule:nonzero;stroke:none"
         id="path3794"
         inkscape:connector-curvature="0" /><path
         d="m 1300.242,702.918 h 10.297 V 601.621 h -10.297 z"
         style="fill:#de2386;fill-opacity:1;fill-rule:nonzero;stroke:none"
         id="path3796"
         inkscape:connector-curvature="0" /><path
         d="m 1337.41,601.621 h 30.047 c 23.313,0 37.766,11.156 37.766,28.047 0,14.734 -9.735,23.891 -22.891,25.328 v 0.281 c 10.734,2.438 17.891,11.157 17.891,21.75 0,20.313 -17.172,25.891 -32.625,25.891 h -30.188 z m 10.297,92.422 h 17.891 c 13.297,0 24.312,-4.859 24.312,-17.734 0,-13.454 -11.578,-17.75 -21.453,-17.75 h -20.75 z m 0,-43.922 h 21.031 c 16.453,0 26.047,-6.578 26.047,-19.891 0,-14.156 -13.031,-19.734 -27.906,-19.734 h -19.172 z"
         style="fill:#de2386;fill-opacity:1;fill-rule:nonzero;stroke:none"
         id="path3798"
         inkscape:connector-curvature="0" /><path
         d="m 1438.812,648.98 h 17.172 l 28.047,-47.359 h 12.578 L 1467,649.84 c 14.734,1.578 25.891,11.015 25.891,26.031 0,19.75 -14.594,27.047 -34.625,27.047 h -29.75 V 601.621 h 10.296 z m 0,45.063 h 18.313 c 15.313,0 25.469,-4.859 25.469,-18.172 0,-12.016 -9.438,-18.016 -25.891,-18.016 h -17.891 z"
         style="fill:#de2386;fill-opacity:1;fill-rule:nonzero;stroke:none"
         id="path3800"
         inkscape:connector-curvature="0" /><path
         d="m 1524.605,628.23 h 52.375 l 11.157,-26.609 h 11.437 l -43.484,101.297 h -10.016 l -43.781,-101.297 h 11.297 z m 26.188,63.25 22.312,-53.796 h -44.64 z"
         style="fill:#de2386;fill-opacity:1;fill-rule:nonzero;stroke:none"
         id="path3802"
         inkscape:connector-curvature="0" /><path
         d="m 1624.652,648.98 h 17.172 l 28.047,-47.359 h 12.578 l -29.609,48.219 c 14.734,1.578 25.89,11.015 25.89,26.031 0,19.75 -14.593,27.047 -34.625,27.047 h -29.75 V 601.621 h 10.297 z m 0,45.063 h 18.313 c 15.312,0 25.469,-4.859 25.469,-18.172 0,-12.016 -9.438,-18.016 -25.891,-18.016 h -17.891 z"
         style="fill:#de2386;fill-opacity:1;fill-rule:nonzero;stroke:none"
         id="path3804"
         inkscape:connector-curvature="0" /><path
         d="m 1734.074,645.262 37.922,57.656 h -12.031 l -30.75,-49.078 -30.485,49.078 h -12.875 l 37.922,-57.656 v -43.641 h 10.297 z"
         style="fill:#de2386;fill-opacity:1;fill-rule:nonzero;stroke:none"
         id="path3806"
         inkscape:connector-curvature="0" /><path
         d="m 1153.715,1028.422 c 0,-2.774 -1.387,-4.156 -4.156,-4.156 h -96.547 c -1.106,0 -1.657,-0.559 -1.657,-1.672 V 919.391 c 0,-1.106 0.551,-1.657 1.657,-1.657 h 60.75 c 2.781,0 4.172,-1.39 4.172,-4.172 v -17.89 c 0,-2.774 -1.391,-4.156 -4.172,-4.156 h -60.75 c -1.106,0 -1.657,-0.559 -1.657,-1.672 v -103.61 c 0,-1.117 0.551,-1.672 1.657,-1.672 h 96.547 c 2.769,0 4.156,-1.386 4.156,-4.156 v -17.484 c 0,-2.774 -1.387,-4.156 -4.156,-4.156 h -123.594 c -2.774,0 -4.156,1.382 -4.156,4.156 v 282.984 c 0,2.77 1.382,4.156 4.156,4.156 h 123.594 c 2.769,0 4.156,-1.386 4.156,-4.156 z m 51.058,-269.656 c -2.773,0 -4.156,1.382 -4.156,4.156 v 282.984 c 0,2.77 1.383,4.156 4.156,4.156 h 22.047 c 2.227,0 3.754,-1.109 4.578,-3.328 L 1315.055,837 c 0.269,-0.836 0.679,-1.25 1.234,-1.25 0.563,0 0.844,0.414 0.844,1.25 v 208.906 c 0,2.77 1.383,4.156 4.156,4.156 h 20.813 c 2.769,0 4.156,-1.386 4.156,-4.156 V 762.922 c 0,-2.774 -1.387,-4.156 -4.156,-4.156 h -22.063 c -2.219,0 -3.746,1.109 -4.578,3.328 l -83.641,209.734 c -0.281,0.832 -0.699,1.176 -1.25,1.031 -0.554,-0.136 -0.828,-0.621 -0.828,-1.453 l 0.422,-208.484 c 0,-2.774 -1.391,-4.156 -4.172,-4.156 z"
         style="fill:#0031ff;fill-opacity:1;fill-rule:nonzero;stroke:none"
         id="path3808"
         inkscape:connector-curvature="0" /><path
         d="m 1533.188,1050.062 c 2.769,0 4.156,-1.386 4.156,-4.156 v -17.484 c 0,-2.774 -1.387,-4.156 -4.156,-4.156 h -54.938 c -1.105,0 -1.656,-0.559 -1.656,-1.672 V 762.922 c 0,-2.774 -1.391,-4.156 -4.172,-4.156 h -21.219 c -2.773,0 -4.156,1.382 -4.156,4.156 v 259.672 c 0,1.113 -0.559,1.672 -1.672,1.672 h -51.594 c -2.773,0 -4.156,1.382 -4.156,4.156 v 17.484 c 0,2.77 1.383,4.156 4.156,4.156 z"
         style="fill:#0031ff;fill-opacity:1;fill-rule:nonzero;stroke:none"
         id="path3810"
         inkscape:connector-curvature="0" /><path
         d="m 1585.969,758.766 c -2.774,0 -4.157,1.382 -4.157,4.156 v 282.984 c 0,2.77 1.383,4.156 4.157,4.156 h 21.219 c 2.781,0 4.171,-1.386 4.171,-4.156 V 762.922 c 0,-2.774 -1.39,-4.156 -4.171,-4.156 z"
         style="fill:#0031ff;fill-opacity:1;fill-rule:nonzero;stroke:none"
         id="path3812"
         inkscape:connector-curvature="0" /><path
         d="m 1798.969,1050.062 c 2.769,0 4.156,-1.386 4.156,-4.156 v -17.484 c 0,-2.774 -1.387,-4.156 -4.156,-4.156 h -54.938 c -1.105,0 -1.656,-0.559 -1.656,-1.672 V 762.922 c 0,-2.774 -1.391,-4.156 -4.172,-4.156 h -21.219 c -2.773,0 -4.156,1.382 -4.156,4.156 v 259.672 c 0,1.113 -0.558,1.672 -1.672,1.672 h -51.594 c -2.773,0 -4.156,1.382 -4.156,4.156 v 17.484 c 0,2.77 1.383,4.156 4.156,4.156 z"
         style="fill:#0031ff;fill-opacity:1;fill-rule:nonzero;stroke:none"
         id="path3814"
         inkscape:connector-curvature="0" /></g><g
       id="g3816"><g
         id="g3818"
         clip-path="url(#clipPath3822)"><path
           d="m 1895.434,759.188 c -2.774,0 -4.157,1.382 -4.157,4.156 v 124.422 c 0,1.113 -0.14,1.804 -0.422,2.078 l -57.843,155.234 -0.407,1.656 c 0,2.219 1.243,3.328 3.735,3.328 h 22.484 c 2.488,0 4.149,-1.109 4.985,-3.328 l 40.781,-121.922 c 0.281,-0.562 0.695,-0.843 1.25,-0.843 0.551,0 0.969,0.281 1.25,0.843 l 40.781,121.922 c 0.832,2.219 2.5,3.328 5,3.328 h 22.469 c 1.383,0 2.422,-0.484 3.109,-1.453 0.696,-0.968 0.77,-2.148 0.219,-3.531 l -57.422,-155.234 c -0.281,-0.274 -0.422,-0.965 -0.422,-2.078 V 763.344 c 0,-2.774 -1.386,-4.156 -4.156,-4.156 z"
           style="fill:#0031ff;fill-opacity:1;fill-rule:nonzero;stroke:none"
           id="path3824"
           inkscape:connector-curvature="0" /></g></g><g
       id="g3826"><path
         d="m 1499.66,1225.801 c 0,-21.418 -3.57,-41.078 -10.703,-58.985 -7.137,-17.906 -17.172,-33.328 -30.109,-46.265 -12.93,-12.93 -28.481,-22.961 -46.657,-30.094 -18.179,-7.137 -38.308,-10.703 -60.39,-10.703 h -111.516 v 292.094 h 111.516 c 22.082,0 42.211,-3.606 60.39,-10.813 18.176,-7.199 33.727,-17.23 46.657,-30.094 12.937,-12.867 22.972,-28.257 30.109,-46.171 7.133,-17.907 10.703,-37.563 10.703,-58.969 z m -55.547,0 c 0,16.019 -2.156,30.394 -6.468,43.125 -4.313,12.726 -10.446,23.5 -18.391,32.312 -7.938,8.821 -17.602,15.586 -28.984,20.297 -11.375,4.719 -24.2,7.078 -38.469,7.078 h -56.766 v -205.625 h 56.766 c 14.269,0 27.094,2.352 38.469,7.063 11.382,4.719 21.046,11.484 28.984,20.297 7.945,8.82 14.078,19.597 18.391,32.328 4.312,12.726 6.468,27.101 6.468,43.125 z"
         style="fill:#d959ef;fill-opacity:1;fill-rule:nonzero;stroke:none"
         id="path3828"
         inkscape:connector-curvature="0" /><path
         d="m 1542.344,1079.754 v 292.094 h 100.812 c 19.114,0 35.438,-1.821 48.969,-5.453 13.539,-3.637 24.656,-8.825 33.344,-15.563 8.687,-6.73 15.047,-14.875 19.078,-24.437 4.039,-9.563 6.062,-20.336 6.062,-32.313 0,-6.875 -1.011,-13.445 -3.031,-19.703 -2.023,-6.262 -5.152,-12.121 -9.39,-17.578 -4.243,-5.449 -9.626,-10.399 -16.157,-14.844 -6.531,-4.437 -14.308,-8.211 -23.328,-11.312 40.125,-9.024 60.188,-30.704 60.188,-65.047 0,-12.387 -2.36,-23.836 -7.079,-34.344 -4.71,-10.5 -11.574,-19.559 -20.593,-27.172 -9.024,-7.605 -20.133,-13.562 -33.328,-17.875 -13.2,-4.305 -28.282,-6.453 -45.25,-6.453 z m 54.344,128.062 v -85.64 h 55.14 c 10.102,0 18.555,1.207 25.36,3.625 6.8,2.426 12.253,5.66 16.359,9.703 4.101,4.039 7.062,8.754 8.875,14.141 1.82,5.382 2.734,11.109 2.734,17.171 0,6.332 -1.011,12.02 -3.031,17.063 -2.012,5.051 -5.172,9.359 -9.484,12.922 -4.313,3.57 -9.84,6.301 -16.579,8.187 -6.73,1.883 -14.871,2.828 -24.421,2.828 z m 0,37.579 h 43.437 c 18.445,0 32.453,3.363 42.016,10.093 9.562,6.739 14.343,17.446 14.343,32.125 0,15.219 -4.312,26.055 -12.937,32.516 -8.617,6.469 -22.078,9.703 -40.391,9.703 h -46.468 z"
         style="fill:#d959ef;fill-opacity:1;fill-rule:nonzero;stroke:none"
         id="path3830"
         inkscape:connector-curvature="0" /></g></g></svg>